<svg xmlns="http://www.w3.org/2000/svg" xmlns:xlink="http://www.w3.org/1999/xlink" fill="none" version="1.1" width="24" height="24" viewBox="0 0 24 24"><defs><clipPath id="master_svg0_241_07"><rect x="0" y="0" width="24" height="24" rx="0"/></clipPath><linearGradient x1="0.5" y1="0" x2="0.5" y2="1" id="master_svg1_241_01793"><stop offset="0%" stop-color="#4079FD" stop-opacity="1"/><stop offset="100%" stop-color="#4060FD" stop-opacity="1"/></linearGradient></defs><g><g clip-path="url(#master_svg0_241_07)"><g></g><g><path d="M16,23C15.4477,23,15,22.5523,15,22L15,14L9,14L9,22C9,22.5523,8.55228,23,8,23L2,23C1.447715,23,1,22.5523,1,22L1,10C1,9.69622,1.13809,9.4089,1.375305,9.21913L11.3753,1.219131C11.7405,0.9269562,12.2595,0.9269563,12.6247,1.219131L22.6247,9.21913C22.8619,9.4089,23,9.69622,23,10L23,22C23,22.5523,22.5523,23,22,23L16,23ZM11,17C11,16.447699999999998,11.4477,16,12,16C12.5523,16,13,16.447699999999998,13,17L13,22C13,22.5523,12.5523,23,12,23C11.4477,23,11,22.5523,11,22L11,17Z" fill-rule="evenodd" fill="url(#master_svg1_241_01793)" fill-opacity="1" style="mix-blend-mode:passthrough"/></g></g></g></svg>