<svg xmlns="http://www.w3.org/2000/svg" xmlns:xlink="http://www.w3.org/1999/xlink" fill="none" version="1.1" width="24" height="24" viewBox="0 0 24 24"><defs><clipPath id="master_svg0_246_0767"><rect x="0" y="0" width="24" height="24" rx="0"/></clipPath></defs><g><g clip-path="url(#master_svg0_246_0767)"><g><rect x="0" y="0" width="24" height="24" rx="0" fill="#FFFFFF" fill-opacity="0.009999999776482582" style="mix-blend-mode:passthrough"/></g><g><path d="M15,22Q15,22.0985,15.0192,22.1951Q15.0384,22.2917,15.0761,22.3827Q15.1138,22.4737,15.1685,22.5556Q15.2232,22.6375,15.2929,22.7071Q15.3625,22.7767,15.4444,22.8315Q15.5263,22.8862,15.6173,22.9239Q15.7083,22.9616,15.8049,22.9808Q15.9015,23,16,23L22,23Q22.0985,23,22.1951,22.9808Q22.2917,22.9616,22.3827,22.9239Q22.4737,22.8862,22.5556,22.8315Q22.6375,22.7767,22.7071,22.7071Q22.7767,22.6375,22.8315,22.5556Q22.8862,22.4737,22.9239,22.3827Q22.9616,22.2917,22.9808,22.1951Q23,22.0985,23,22L23,10Q23,9.88752,22.975,9.77785Q22.95,9.66819,22.9013,9.56681Q22.8526,9.46543,22.7826,9.37742Q22.7125,9.2894,22.6247,9.21913L12.6247,1.219131Q12.5587,1.166317,12.4847,1.125337Q12.4108,1.084356,12.331,1.056372Q12.2512,1.028387,12.1679,1.014194Q12.0845,1,12,1Q11.91546,1,11.83211,1.014194Q11.74877,1.028387,11.66899,1.056372Q11.58922,1.084356,11.51527,1.125337Q11.44132,1.166317,11.37531,1.219131L1.375305,9.21913Q1.2874750000000001,9.2894,1.217448,9.37742Q1.147421,9.46543,1.098697,9.56681Q1.049973,9.66819,1.024986,9.77785Q1,9.88752,1,10L1,22Q1,22.0985,1.019215,22.1951Q1.03843,22.2917,1.076121,22.3827Q1.113812,22.4737,1.16853,22.5556Q1.223249,22.6375,1.2928929999999998,22.7071Q1.362537,22.7767,1.44443,22.8315Q1.526322,22.8862,1.617317,22.9239Q1.7083110000000001,22.9616,1.80491,22.9808Q1.9015086,23,2,23L8,23Q8.09849,23,8.19509,22.9808Q8.29169,22.9616,8.38268,22.9239Q8.47368,22.8862,8.55557,22.8315Q8.63746,22.7767,8.70711,22.7071Q8.77675,22.6375,8.83147,22.5556Q8.88619,22.4737,8.92388,22.3827Q8.96157,22.2917,8.98078,22.1951Q9,22.0985,9,22L9,14L15,14L15,22ZM17,21L17,13Q17,12.9015,16.980800000000002,12.8049Q16.9616,12.7083,16.9239,12.6173Q16.886200000000002,12.5263,16.8315,12.4444Q16.776699999999998,12.3625,16.7071,12.2929Q16.6375,12.2232,16.5556,12.1685Q16.4737,12.1138,16.3827,12.0761Q16.2917,12.0384,16.1951,12.0192Q16.0985,12,16,12L8,12Q7.90151,12,7.80491,12.0192Q7.70831,12.0384,7.61732,12.0761Q7.52632,12.1138,7.44443,12.1685Q7.36254,12.2232,7.29289,12.2929Q7.22325,12.3625,7.16853,12.4444Q7.11381,12.5263,7.07612,12.6173Q7.03843,12.7083,7.01921,12.8049Q7,12.9015,7,13L7,21L3,21L3,10.48062L12,3.28062L21,10.48062L21,21L17,21Z" fill-rule="evenodd" fill="#333333" fill-opacity="1" style="mix-blend-mode:passthrough"/></g><g><path d="M11,17Q11,16.9015086,11.019214999999999,16.80491Q11.03843,16.708311,11.076121,16.617317Q11.113812,16.526322,11.16853,16.44443Q11.223249,16.362537,11.292893,16.292893Q11.362537,16.223249,11.44443,16.16853Q11.526322,16.113812,11.617317,16.076121Q11.708311,16.038429999999998,11.80491,16.019215Q11.9015086,16,12,16Q12.0984914,16,12.19509,16.019215Q12.291689,16.038429999999998,12.382683,16.076121Q12.473678,16.113812,12.55557,16.16853Q12.637463,16.223249,12.707107,16.292893Q12.776751,16.362537,12.83147,16.44443Q12.886188,16.526322,12.923879,16.617317Q12.96157,16.708311,12.980785000000001,16.80491Q13,16.9015086,13,17L13,22Q13,22.098489999999998,12.980785000000001,22.19509Q12.96157,22.29169,12.923879,22.38268Q12.886188,22.47368,12.83147,22.55557Q12.776751,22.63746,12.707107,22.70711Q12.637463,22.77675,12.55557,22.83147Q12.473678,22.88619,12.382683,22.92388Q12.291689,22.961570000000002,12.19509,22.98078Q12.0984914,23,12,23Q11.9015086,23,11.80491,22.98078Q11.708311,22.961570000000002,11.617317,22.92388Q11.526322,22.88619,11.44443,22.83147Q11.362537,22.77675,11.292893,22.70711Q11.223249,22.63746,11.16853,22.55557Q11.113812,22.47368,11.076121,22.38268Q11.03843,22.29169,11.019214999999999,22.19509Q11,22.098489999999998,11,22L11,17Z" fill-rule="evenodd" fill="#333333" fill-opacity="1" style="mix-blend-mode:passthrough"/></g></g></g></svg>