<?xml version="1.0" standalone="no"?><!DOCTYPE svg PUBLIC "-//W3C//DTD SVG 1.1//EN" "http://www.w3.org/Graphics/SVG/1.1/DTD/svg11.dtd"><svg t="1740663462053" class="icon" viewBox="0 0 1024 1024" version="1.1" xmlns="http://www.w3.org/2000/svg" p-id="2073" xmlns:xlink="http://www.w3.org/1999/xlink" width="64" height="64"><path d="M329.5 265.7c20.3 0 36.8-16.6 36.8-36.8v-81.8c0-20.3-16.6-36.8-36.8-36.8s-36.8 16.6-36.8 36.8v81.8c0 20.2 16.6 36.8 36.8 36.8z" p-id="2074"></path><path d="M819.1 169.6h-43.2V231c0 37.2-30.3 67.5-67.5 67.5s-67.5-30.3-67.5-67.5v-61.4H395.4V231c0 37.2-30.3 67.5-67.5 67.5s-67.5-30.3-67.5-67.5v-61.4h-55.5C127.2 169.6 64 232.8 64 310.4v462.4c0 77.7 63.2 140.9 140.9 140.9h614.2c77.7 0 140.9-63.2 140.9-140.9V310.4c0-77.6-63.2-140.8-140.9-140.8z m79.5 603.3c0 43.8-35.7 79.5-79.5 79.5H204.9c-43.8 0-79.5-35.7-79.5-79.5V392.1h773.3v380.8z" p-id="2075"></path><path d="M710 265.7c20.3 0 36.8-16.6 36.8-36.8v-81.8c0-20.3-16.6-36.8-36.8-36.8-20.3 0-36.8 16.6-36.8 36.8v81.8c0 20.2 16.5 36.8 36.8 36.8zM451.4 721.2c11.3 11.3 29.7 11.3 41 0l172.8-172.8c11.3-11.3 11.3-29.7 0-41s-29.7-11.3-41 0L471.9 659.8l-72.2-72.2c-11.3-11.3-29.7-11.3-41 0s-11.3 29.7 0 41l92.7 92.6z" p-id="2076"></path></svg>